<svg width="44" height="44" viewBox="0 0 44 44" fill="none" xmlns="http://www.w3.org/2000/svg">
<path d="M2.75 16.4389C2.75 11.6473 2.75 9.25155 3.6825 7.42141C4.50275 5.81159 5.81159 4.50275 7.42141 3.6825C9.25155 2.75 11.6473 2.75 16.4389 2.75H27.561C32.3526 2.75 34.7484 2.75 36.5786 3.6825C38.1884 4.50275 39.4973 5.81159 40.3175 7.42141C41.25 9.25155 41.25 11.6473 41.25 16.4389V27.561C41.25 32.3526 41.25 34.7484 40.3175 36.5786C39.4973 38.1884 38.1884 39.4973 36.5786 40.3175C34.7484 41.25 32.3526 41.25 27.561 41.25H16.4389C11.6473 41.25 9.25155 41.25 7.42141 40.3175C5.81159 39.4973 4.50275 38.1884 3.6825 36.5786C2.75 34.7484 2.75 32.3526 2.75 27.561V16.4389Z" fill="white"/>
<path d="M30.3208 11.719L22.0885 18.1436L13.6681 11.719V11.7207L13.6783 11.7294V20.7256L21.9937 27.289L30.3208 20.979V11.719Z" fill="#EA4335"/>
<path d="M32.4818 10.1563L30.3199 11.719V20.9791L37.1227 15.7561V12.6098C37.1227 12.6098 36.297 8.11604 32.4818 10.1563Z" fill="#FBBC05"/>
<path d="M30.3199 20.979V32.9895H35.5339C35.5339 32.9895 37.0176 32.8368 37.1243 31.1455V15.7561L30.3199 20.979Z" fill="#34A853"/>
<path d="M13.6787 33.0002V20.7257L13.6681 20.717L13.6787 33.0002Z" fill="#C5221F"/>
<path d="M13.6677 11.7205L11.5176 10.1664C7.70246 8.12621 6.875 12.6182 6.875 12.6182V15.7645L13.6677 20.7167V11.7205Z" fill="#C5221F"/>
<path d="M13.6681 11.7209V20.7171L13.6787 20.7258V11.7296L13.6681 11.7209Z" fill="#C5221F"/>
<path d="M6.875 15.7668V31.1563C6.98013 32.8493 8.4655 33.0004 8.4655 33.0004H13.6796L13.6677 20.7173L6.875 15.7668Z" fill="#4285F4"/>
</svg>
